<?xml version="1.0" encoding="UTF-8" standalone="no"?>
<!-- Generator: Adobe Illustrator 16.0.0, SVG Export Plug-In . SVG Version: 6.00 Build 0)  -->

<svg
   version="1.1"
   id="Capa_1"
   x="0px"
   y="0px"
   width="205.695px"
   height="205.694px"
   viewBox="0 0 205.695 205.694"
   style="enable-background:new 0 0 205.695 205.694;"
   xml:space="preserve"
   sodipodi:docname="logo.svg"
   inkscape:version="1.1.1 (3bf5ae0d25, 2021-09-20, custom)"
   xmlns:inkscape="http://www.inkscape.org/namespaces/inkscape"
   xmlns:sodipodi="http://sodipodi.sourceforge.net/DTD/sodipodi-0.dtd"
   xmlns="http://www.w3.org/2000/svg"
   xmlns:svg="http://www.w3.org/2000/svg"><defs
   id="defs117" /><sodipodi:namedview
   id="namedview115"
   pagecolor="#505050"
   bordercolor="#eeeeee"
   borderopacity="1"
   inkscape:pageshadow="0"
   inkscape:pageopacity="0"
   inkscape:pagecheckerboard="0"
   showgrid="false"
   inkscape:zoom="5.6199986"
   inkscape:cx="67.882579"
   inkscape:cy="102.66906"
   inkscape:window-width="2560"
   inkscape:window-height="1371"
   inkscape:window-x="0"
   inkscape:window-y="0"
   inkscape:window-maximized="1"
   inkscape:current-layer="Capa_1" />
<g
   id="g82">
	<path
   d="M183.957,113.298c-21.74,11.732-23.838-9.611-23.838-9.611c-17.969-2.08-31.351-22.162-31.351-22.162   c-24.258,12.54-10.746,47.922-0.284,61.505c1.502,1.938,2.672,4.03,3.642,6.183h25.428v25.215h24.045v31.268H16.167v-31.268h24.045   v-25.215h9.274c-0.056-0.071-0.121-0.131-0.177-0.201c-21.001-26.386-15.584-51.329-9.605-67.797   C46.907,61.419,56.636,50.564,70.833,39c21.075-17.18,60.039-19.352,60.039-19.352C132.125,12.543,152.618,0,152.618,0   c-2.099,2.084-2.932,13.382-2.932,13.382c2.099-3.768,8.783-7.54,8.783-7.54c-3.765,8.781,0,27.601,0,27.601   c10.876,10.888,22.993,48.516,22.993,48.516l4.616,6.682C191.918,97.02,189.755,110.177,183.957,113.298z M118.3,16.435   c2.984,0,5.396-2.415,5.396-5.405s-2.412-5.394-5.396-5.394c-2.979,0-5.4,2.403-5.4,5.394S115.321,16.435,118.3,16.435z    M94.899,20.641c2.985,0,5.399-2.42,5.399-5.405c0-2.982-2.414-5.411-5.399-5.411c-2.979,0-5.399,2.423-5.399,5.411   C89.5,18.22,91.92,20.641,94.899,20.641z M75.701,29.037c2.977,0,5.4-2.421,5.4-5.405c0-2.985-2.423-5.406-5.4-5.406   c-2.984,0-5.399,2.415-5.399,5.406C70.301,26.607,72.716,29.037,75.701,29.037z M57.706,39.827c2.985,0,5.399-2.409,5.399-5.391   c0-2.991-2.415-5.405-5.399-5.405s-5.399,2.402-5.399,5.405C52.306,37.412,54.727,39.827,57.706,39.827z M43.907,54.825   c2.982,0,5.396-2.408,5.396-5.399c0-2.987-2.414-5.402-5.396-5.402c-2.985,0-5.399,2.415-5.399,5.402   C38.507,52.417,40.928,54.825,43.907,54.825z M33.708,72.833c2.982,0,5.399-2.421,5.399-5.406c0-2.991-2.417-5.411-5.399-5.411   c-2.979,0-5.399,2.415-5.399,5.411C28.309,70.412,30.723,72.833,33.708,72.833z M26.505,94.428c2.982,0,5.397-2.42,5.397-5.411   c0-2.988-2.415-5.402-5.397-5.402c-2.979,0-5.399,2.414-5.399,5.402C21.106,92.007,23.527,94.428,26.505,94.428z M22.903,117.825   c2.985,0,5.399-2.399,5.399-5.402c0-2.979-2.414-5.391-5.399-5.391c-2.979,0-5.399,2.4-5.399,5.391   C17.503,115.414,19.924,117.825,22.903,117.825z M27.108,128.63c-2.982,0-5.396,2.412-5.396,5.391c0,2.991,2.415,5.415,5.396,5.415   c2.985,0,5.4-2.4,5.4-5.415C32.508,131.042,30.093,128.63,27.108,128.63z"
   id="path80" />
</g>
<g
   id="g84">
</g>
<g
   id="g86">
</g>
<g
   id="g88">
</g>
<g
   id="g90">
</g>
<g
   id="g92">
</g>
<g
   id="g94">
</g>
<g
   id="g96">
</g>
<g
   id="g98">
</g>
<g
   id="g100">
</g>
<g
   id="g102">
</g>
<g
   id="g104">
</g>
<g
   id="g106">
</g>
<g
   id="g108">
</g>
<g
   id="g110">
</g>
<g
   id="g112">
</g>
<path
   style="fill:#f8b033;stroke:none;stroke-width:0.177936;fill-opacity:1"
   d="m 16.281143,190.03563 v -15.5694 h 12.010679 12.010679 v -12.54448 -12.54449 h 4.626336 c 2.544484,0 4.626335,-0.0378 4.626335,-0.084 0,-0.0462 -0.843895,-1.22123 -1.875322,-2.61122 -9.275129,-12.49956 -13.608787,-25.61501 -13.19069,-39.9205 0.263756,-9.024645 2.338408,-18.136398 6.522784,-28.647692 5.915653,-14.86032 13.254489,-24.855775 26.691137,-36.353171 4.790597,-4.099191 7.414633,-5.965804 11.85647,-8.434117 10.977035,-6.099901 26.589629,-10.658692 44.016989,-12.852722 1.90837,-0.240255 4.1904,-0.485908 5.07118,-0.545897 2.11624,-0.144132 2.40191,-0.213178 2.40327,-0.580842 0.002,-0.546819 1.12527,-2.484638 2.29368,-3.957017 1.852,-2.333818 5.08516,-5.237368 9.66238,-8.677335 2.69972,-2.0289571 9.03925,-6.35855342 9.03925,-6.17338285 0,0.0587165 -0.0775,0.25158425 -0.17224,0.42859489 -0.35306,0.65970186 -1.08052,3.48479876 -1.41501,5.49518706 -0.30286,1.8203098 -0.44386,2.898332 -0.8129,6.2147429 -0.0926,0.832649 0.10022,0.992322 0.40107,0.33203 0.31378,-0.688661 2.33056,-2.740727 3.86509,-3.9327186 1.831,-1.422272 3.9818,-2.8439169 4.10944,-2.7162741 0.0546,0.054613 -0.0625,0.6232535 -0.26034,1.2636453 -1.43523,4.6467364 -1.36476,13.3896554 0.18785,23.3074714 l 0.38547,2.462337 1.30481,1.523006 c 5.80839,6.779702 13.24434,22.511875 20.43514,43.234483 l 1.37157,3.952612 2.66395,3.876572 c 1.46518,2.132112 2.96904,4.51714 3.34192,5.300058 1.21163,2.544024 1.77174,4.917948 1.91022,8.096087 0.22178,5.089722 -1.12854,9.634522 -3.65976,12.317752 -0.97909,1.03789 -1.4369,1.35255 -3.29525,2.26488 -3.81907,1.87492 -6.85738,2.7036 -9.89839,2.69971 -3.42699,-0.004 -5.49884,-0.8525 -7.83515,-3.20737 -1.18422,-1.19363 -1.70104,-1.88512 -2.34814,-3.14176 -0.92417,-1.79469 -1.57509,-3.65516 -1.91149,-5.46343 -0.18487,-0.99377 -0.28978,-1.21587 -0.60364,-1.27792 -0.20893,-0.0413 -0.90034,-0.1659 -1.53646,-0.27689 -4.01255,-0.7001 -8.83696,-2.76889 -13.0783,-5.608209 -5.30834,-3.553611 -10.98637,-9.032854 -15.20935,-14.676873 -0.62241,-0.831851 -1.15202,-1.539624 -1.17692,-1.57283 -0.0889,-0.1185 -2.54271,1.40213 -3.9202,2.429308 -0.77094,0.574887 -2.10229,1.775563 -2.95855,2.668172 -4.06766,4.240332 -6.17932,9.415189 -6.74385,16.526562 -0.54566,6.87358 1.13139,15.73319 4.64174,24.52175 1.89102,4.73439 5.01382,10.581 7.41309,13.87901 1.95814,2.69163 3.30036,4.77425 4.08908,6.34468 l 0.79024,1.57347 h 12.63167 12.63167 v 12.54449 12.54448 h 12.09965 12.09964 v 15.5694 15.5694 H 98.932408 16.281143 Z"
   id="path236" /><path
   style="fill:#f8b033;fill-opacity:1;stroke-width:0.177936"
   d="m 116.42783,15.989766 c -1.01747,-0.360528 -2.29091,-1.526166 -2.86517,-2.622619 -0.40223,-0.767994 -0.47746,-1.135909 -0.47746,-2.335116 0,-1.1992067 0.0752,-1.5671214 0.47746,-2.3351159 1.37218,-2.6199244 4.45978,-3.6604083 7.0384,-2.3718547 1.95631,0.9775792 2.95509,2.5684679 2.95509,4.7069706 0,2.138503 -0.99878,3.729392 -2.95509,4.706971 -0.89584,0.447657 -1.28929,0.539693 -2.25757,0.528093 -0.64495,-0.0077 -1.507,-0.132524 -1.91566,-0.277329 z"
   id="path1386" /><path
   style="fill:#f8b033;fill-opacity:1;stroke-width:0.177936"
   d="m 93.172426,20.251735 c -1.171655,-0.404906 -2.629597,-1.76335 -3.122695,-2.909587 -0.697007,-1.620237 -0.481737,-3.742871 0.519807,-5.125462 2.351073,-3.2455612 7.053161,-2.9684305 8.990789,0.529897 0.470703,0.849836 0.528433,1.120316 0.526533,2.466944 -0.002,1.651087 -0.287919,2.430918 -1.321229,3.607793 -1.288053,1.467011 -3.701379,2.084199 -5.593205,1.430415 z"
   id="path1425" /><path
   style="fill:#f8b033;fill-opacity:1;stroke-width:0.177936"
   d="m 73.892292,28.620276 c -0.952393,-0.337236 -2.443796,-1.669194 -2.935415,-2.621593 -0.261141,-0.505899 -0.401199,-1.171157 -0.453752,-2.155261 -0.07164,-1.341429 -0.04151,-1.489844 0.522658,-2.574579 1.621791,-3.118275 5.537024,-3.858876 8.252893,-1.561108 1.429312,1.209273 2.054483,3.723726 1.409008,5.667068 -0.422444,1.271858 -1.942437,2.819455 -3.183775,3.241593 -1.064361,0.361953 -2.595731,0.363598 -3.611617,0.0039 z"
   id="path1464" /><path
   style="fill:#f8b033;fill-opacity:1;stroke-width:0.177936"
   d="m 56.31674,39.53045 c -1.660814,-0.550116 -2.841491,-1.591842 -3.505501,-3.092946 -0.478203,-1.081057 -0.476269,-2.937096 0.0042,-4.023259 1.231927,-2.784975 4.526145,-4.040168 7.181309,-2.736287 1.097411,0.53891 1.875114,1.313151 2.500047,2.488919 0.323551,0.608739 0.399313,1.038241 0.399313,2.263736 0,1.661119 -0.283524,2.428348 -1.343512,3.635608 -1.135602,1.293378 -3.638497,1.993325 -5.235849,1.464229 z"
   id="path1503" /><path
   style="fill:#f8b033;fill-opacity:1;stroke-width:0.177936"
   d="M 42.525549,54.549063 C 41.121711,54.122035 39.852643,53.076183 39.18416,51.79539 38.535562,50.552695 38.5,48.450841 39.106736,47.219356 c 1.310903,-2.660725 4.491729,-3.825499 7.04093,-2.578291 3.372829,1.650171 4.062649,6.008513 1.365315,8.626186 -1.225112,1.188931 -3.429922,1.755585 -4.987432,1.281812 z"
   id="path1542" /><path
   style="fill:#f8b033;fill-opacity:1;stroke-width:0.177936"
   d="m 31.974739,72.429922 c -2.171448,-0.774539 -3.506612,-2.691948 -3.503243,-5.030952 0.003,-2.096141 1.013704,-3.733217 2.880787,-4.666209 3.384793,-1.691402 7.305931,0.524356 7.575597,4.28082 0.118335,1.648416 -0.29924,2.819912 -1.432114,4.017759 -1.415278,1.496448 -3.655603,2.063965 -5.521027,1.398582 z"
   id="path1581" /><path
   style="fill:#f8b033;fill-opacity:1;stroke-width:0.177936"
   d="m 25.397598,94.209895 c -1.577537,-0.391577 -2.923842,-1.488278 -3.704518,-3.017702 -0.624838,-1.224123 -0.594873,-3.133451 0.07044,-4.488301 1.961443,-3.994303 7.594823,-3.915594 9.555601,0.13351 0.586437,1.211021 0.597344,3.003648 0.02606,4.283407 -0.999939,2.240018 -3.705983,3.645497 -5.947585,3.089086 z"
   id="path1620" /><path
   style="fill:#f8b033;fill-opacity:1;stroke-width:0.177936"
   d="m 20.81851,117.24728 c -1.910752,-0.88622 -3.015093,-2.46862 -3.15784,-4.52483 -0.151524,-2.18264 1.053953,-4.15574 3.124876,-5.11473 0.807995,-0.37416 1.144784,-0.42785 2.313167,-0.36875 1.645629,0.0833 2.477925,0.44612 3.610543,1.57413 2.632573,2.62187 1.57016,7.20456 -1.983264,8.55475 -1.271407,0.4831 -2.701031,0.43898 -3.907482,-0.12057 z"
   id="path1659" /><path
   style="fill:#f8b033;fill-opacity:1;stroke-width:0.177936"
   d="m 25.765702,139.17244 c -1.149079,-0.32116 -2.191378,-1.0501 -2.866652,-2.00481 -0.787364,-1.11319 -0.983993,-1.7403 -0.997648,-3.18183 -0.01955,-2.06394 1.082418,-3.81599 2.991868,-4.75685 1.22919,-0.60567 3.330606,-0.56766 4.577084,0.0828 1.164629,0.60774 2.278094,1.87272 2.659695,3.02161 0.625943,1.88454 -0.0189,4.41811 -1.427897,5.6102 -1.339998,1.13371 -3.422299,1.65208 -4.93645,1.22889 z"
   id="path1698" /></svg>
